<?xml version="1.0" standalone="no"?>
<!DOCTYPE svg PUBLIC "-//W3C//DTD SVG 1.1//EN" "http://www.w3.org/Graphics/SVG/1.1/DTD/svg11.dtd">
<svg xmlns="http://www.w3.org/2000/svg">
<metadata>Copyright (C) 2024 by original authors @ fontello.com</metadata>
<defs>
<font id="fontello" horiz-adv-x="1000" >
<font-face font-family="fontello" font-weight="400" font-stretch="normal" units-per-em="1000" ascent="850" descent="-150" />
<missing-glyph horiz-adv-x="1000" />
<glyph glyph-name="circle-question" unicode="&#xe800;" d="M500 850c-276 0-500-224-500-500s224-500 500-500 500 224 500 500-224 500-500 500z m0-781c-35 0-62 27-62 62s25 63 62 63c33 0 63-28 63-63s-30-62-63-62z m135 277l-88-55v-3c0-26-22-47-47-47s-47 21-47 47v31c0 15 8 31 24 41l111 66c14 8 21 22 21 37 0 24-21 43-44 43h-100c-25 0-43-19-43-43 0-25-22-47-47-47s-47 22-47 47c0 77 61 137 135 137h100c80 0 140-60 140-137 0-47-25-91-68-117z" horiz-adv-x="1000" />

<glyph glyph-name="circle-user" unicode="&#xe801;" d="M500 850c-276 0-500-224-500-500s224-500 500-500 500 224 500 500-224 500-500 500z m0-250c78 0 141-63 141-141s-63-140-141-140c-78 0-141 63-141 140s63 141 141 141z m0-625c-103 0-197 42-265 110 32 82 110 140 203 140h125c92 0 171-58 202-140-68-68-162-110-265-110z" horiz-adv-x="1000" />

<glyph glyph-name="circle-xmark" unicode="&#xe802;" d="M0 350c0 276 224 500 500 500 276 0 500-224 500-500 0-276-224-500-500-500-276 0-500 224-500 500z m342 94l92-92-92-94c-18-18-18-48 0-64 18-20 48-20 64 0l92 90 94-90c18-20 48-20 64 0 20 16 20 46 0 64l-90 94 90 92c20 16 20 46 0 64-16 18-46 18-64 0l-94-92-92 92c-16 18-46 18-64 0-18-18-18-48 0-64v0z" horiz-adv-x="1000" />

<glyph glyph-name="display" unicode="&#xe803;" d="M1031 850h-937c-52 0-94-42-94-94v-625c0-51 42-93 94-93h375l-31-94h-141c-26 0-47-21-47-47s21-47 47-47h531c26 0 47 21 47 47s-21 47-47 47h-140l-32 94h375c52 0 94 42 94 93v625c0 52-42 94-94 94z m-31-687h-875v562h875v-562z" horiz-adv-x="1125" />

<glyph glyph-name="download" unicode="&#xe804;" d="M938 163h-261l-89-89c-23-23-55-36-88-36s-65 13-88 36l-89 89h-260c-35 0-63-28-63-63v-188c0-34 28-62 63-62h875c34 0 62 28 62 62v188c0 35-28 63-62 63z m-94-204c-26 0-47 21-47 47 0 26 21 47 47 47s47-21 47-47c0-26-21-47-47-47z m-388 159c12-12 28-18 44-18s32 6 44 18l250 250c25 25 25 64 0 89-24 24-64 24-88 0l-143-144v475c0 34-28 62-63 62-35 0-62-28-62-62v-475l-144 144c-24 24-64 24-88 0-25-25-25-64 0-89l250-250z" horiz-adv-x="1000" />

<glyph glyph-name="gift" unicode="&#xe805;" d="M297 850h4c63 0 120-33 152-87l47-80 47 80c32 54 90 87 152 87h4c95 0 172-77 172-172 0-28-7-53-19-78h82c34 0 62-28 62-62v-125c0-35-28-63-62-63h-875c-35 0-63 28-63 63v125c0 34 28 62 63 62h81c-12 25-19 50-19 78 0 95 77 172 172 172z m75-134c-15 25-42 40-71 40h-4c-43 0-78-35-78-78 0-43 35-78 78-78h143l-68 116z m331 40h-4c-29 0-56-15-71-40l-68-116h143c43 0 78 35 78 78 0 43-35 78-78 78v0z m-640-468h375v-438h-282c-51 0-93 42-93 94v344z m500-438v438h375v-344c0-52-42-94-94-94h-281z" horiz-adv-x="1000" />

<glyph glyph-name="github" unicode="&#xe806;" d="M324 74c0-4-4-7-10-7-7-1-11 2-11 7 0 4 4 7 10 7 6 0 11-3 11-7z m-61 9c-1-4 3-9 9-10 5-2 11 0 12 4s-3 8-9 10c-5 2-10 0-12-4z m87 3c-6-1-10-5-9-10 0-3 5-6 11-5 6 2 10 5 9 9 0 4-6 7-11 6z m128 748c-271 0-478-205-478-476 0-217 136-402 331-467 25-5 34 11 34 23 0 12-1 79-1 120 0 0-136-29-165 58 0 0-22 57-54 72 0 0-45 31 3 30 0 0 48-4 75-50 43-76 115-54 142-41 5 31 18 53 32 66-109 12-220 28-220 215 0 54 15 81 46 115-5 13-21 66 6 133 40 13 134-53 134-53 39 11 81 17 123 17s84-6 123-17c0 0 94 66 134 53 27-68 11-120 5-133 32-34 51-61 51-115 0-188-115-203-224-215 18-16 33-45 33-91 0-66-1-147-1-163 0-13 9-29 34-24 195 65 328 250 328 467 0 271-220 476-491 476z m-288-673c-3-2-2-7 1-10 3-3 8-5 10-2 3 2 2 6-1 10-3 3-8 4-10 2z m-21 16c-2-3 0-6 4-8 3-2 7-1 9 1 1 3-1 6-5 8-4 1-7 1-8-1z m63-70c-3-2-2-8 3-12 4-5 10-5 12-2 3 3 2 8-2 12-5 5-10 5-13 2z m-22 29c-3-2-3-7 0-12 3-4 8-6 11-4 3 2 3 7 0 12-3 4-8 6-11 4z" horiz-adv-x="969" />

<glyph glyph-name="language" unicode="&#xe807;" d="M875 530c22 0 39-16 39-39v-8h117c22 0 39-16 39-39 0-22-17-39-39-39h-4l-3-9c-17-46-44-91-77-128 1-1 3 0 5-3l37-22c18-11 24-35 13-54-11-18-35-24-53-13l-37 22c-9 5-19 11-26 17-20-15-43-28-66-38l-7-3c-20-9-43 0-52 20-9 19 0 42 20 51l7 3c13 6 25 14 36 19l-23 24c-16 15-16 40 0 55 15 16 39 16 55 0l28-28 1 1c25 23 44 53 59 87h-210c-23 0-39 16-39 40 0 21 16 39 39 39h102v7c0 22 16 39 39 39l0-1z m-562-135l37-84h-76l39 84z m-313 205c0 69 56 125 125 125h1000c69 0 125-56 125-125v-500c0-69-56-125-125-125h-1000c-69 0-125 56-125 125v500z m625-500h500v500h-500v-500z m-277 406c-6 15-20 24-35 24-16 0-30-9-36-24l-125-281c-9-18 0-43 20-51 19-9 43 0 51 20l18 41h143l18-41c9-20 32-29 51-20 20 8 29 33 20 51l-125 281z" horiz-adv-x="1250" />

<glyph glyph-name="link-1" unicode="&#xe808;" d="M337 594c109 109 289 109 398 0 97-98 112-253 31-366l-2-3c-20-28-59-34-87-14-28 20-35 59-14 87l2 3c44 63 37 148-17 203-61 61-161 61-223 0l-219-219c-61-60-61-162 0-223 54-55 140-62 203-17l3 4c28 18 67 12 87-16 20-28 14-67-14-88l-4-2c-114-80-266-67-363 30-111 111-111 290 0 400l219 221z m576-486c-110-111-289-111-399 0-98 98-111 251-30 364l2 3c18 28 57 34 87 14 28-18 35-57 15-87l-3-3c-44-61-37-148 17-203 62-61 161-61 223 0l219 219c62 62 62 163 0 223-54 55-140 62-203 17l-3-2c-28-20-67-12-87 14-20 28-14 67 14 87l4 3c112 80 266 67 363-30 111-111 111-290 0-400l-219-219z" horiz-adv-x="1250" />

<glyph glyph-name="magnifying-glass" unicode="&#xe809;" d="M977-17l-234 234c54 79 80 178 66 283-24 179-171 324-350 347-266 33-489-190-456-456 23-179 169-326 347-350 105-14 204 12 283 66l234-234c30-31 80-31 110 0 31 30 31 80 0 110z m-822 461c0 138 112 250 250 250s250-112 250-250c0-138-113-250-250-250s-250 112-250 250z" horiz-adv-x="1000" />

<glyph glyph-name="mobile-screen-button" unicode="&#xe80a;" d="M594 850h-438c-69 0-125-56-125-125v-750c0-69 56-125 125-125h438c69 0 125 56 125 125v750c0 69-56 125-125 125z m-219-938c-35 0-62 28-62 63s27 63 62 63 63-28 63-63-28-63-63-63z m219 813v-625h-438v625h438z" horiz-adv-x="750" />

<glyph glyph-name="message" unicode="&#xe80b;" d="M998 727v-561c0-69-56-123-125-123h-281l-244-183c-15-11-37 0-37 19v164h-188c-69 0-125 56-125 123v561c0 69 56 123 125 123h750c71 0 125-56 125-123z" horiz-adv-x="1000" />

<glyph glyph-name="palette" unicode="&#xe80c;" d="M1000 352c0-4-2-5-2-7 1-72-64-118-135-118h-191c-52 0-94-44-94-96 0-6 1-13 2-19 4-20 13-38 21-58 12-27 24-54 24-83 0-62-42-118-104-121-7 0-14 0-21 0-276 0-500 224-500 500 0 276 224 500 500 500 276 0 500-224 500-500v2z m-812 0c-35 0-63-30-63-63 0-36 28-62 63-62 34 0 62 26 62 62 0 33-28 63-62 63z m62 125c35 0 63 26 63 62 0 33-28 63-63 63-35 0-62-30-62-63 0-36 27-62 62-62z m250 250c-35 0-62-30-62-63 0-36 27-62 62-62 35 0 63 26 63 62 0 33-28 63-63 63z m250-250c35 0 63 26 63 62 0 33-28 63-63 63-35 0-62-30-62-63 0-36 27-62 62-62z" horiz-adv-x="1000" />

<glyph glyph-name="puzzle-piece" unicode="&#xe80d;" d="M1000 288c0-69-42-125-94-125-63 0-62 62-108 62-27 0-48-21-48-48v-265c0-34-28-62-62-62h-140c-27 0-48 21-48 48 0 47 63 45 63 108 0 52-56 94-125 94s-125-42-125-94c0-63 62-62 62-108 0-27-21-48-48-48h-264c-35 0-63 28-63 62v265c0 27 21 48 48 48 46 0 45-62 108-62 52 0 94 56 94 125s-42 126-94 126c-63 0-62-62-108-62-27 0-48 19-48 46v140c0 34 28 60 63 60h264c27 4 48 23 48 50 0 46-62 45-62 108 0 52 56 92 125 92s125-42 125-92c0-63-63-62-63-108 0-27 21-48 48-48h140c34 0 62-28 62-61v-140c0-26 21-47 48-47 46 0 45 62 108 62 52 0 94-58 94-126z" horiz-adv-x="1000" />

<glyph glyph-name="rocket" unicode="&#xe80e;" d="M306 98l-60 62c-17 15-23 39-17 62 6 17 13 40 25 66h-207c-17 0-32 9-41 23-8 15-8 33 1 47l102 173c25 43 71 71 121 71h161c4 6 9 13 14 20 160 236 398 244 540 218 23-4 41-22 45-45 26-142 18-380-218-540-7-5-16-10-22-13v-162c0-50-26-96-69-121l-173-102c-14-9-32-9-47-1-14 8-23 24-23 41v209c-28-9-52-17-70-23-22-7-46-1-62 15v0z m444 426c43 0 78 33 78 78 0 41-35 78-78 78-43 0-78-37-78-78 0-45 35-78 78-78z" horiz-adv-x="1000" />

<glyph glyph-name="screwdriver-wrench" unicode="&#xe80f;" d="M648 412c55 0 107-21 146-60l39-38c78 34 139 104 159 188 11 47 10 92 0 134-5 21-32 28-47 13l-135-135h-147v146l134 135c16 15 9 42-13 47-41 10-87 11-133 0-108-26-192-118-210-227-2-17-3-33-3-48l162-162c16 5 32 7 48 7z m102-106c-45 45-112 54-167 27l-210 208 0 122-248 187-125-123 188-248 121 0 208-209c-27-54-18-121 27-166l229-229c28-29 74-29 103 0l103 103c28 28 28 74 0 103l-229 225z m-305-56l-115 116-291-291c-52-51-52-135 0-186 25-26 59-39 93-39s67 13 93 39l233 232c-18 41-23 86-13 129z m-320-322c-26 0-47 21-47 47 0 26 21 47 47 47s47-21 47-47c0-26-21-47-47-47z" horiz-adv-x="1000" />

<glyph glyph-name="sort-down" unicode="&#xe810;" d="M609 196l-258-268c-11-10-25-16-38-16-14 0-28 6-38 16l-259 268c-34 33-10 92 38 92h517c48 0 72-59 38-92z" horiz-adv-x="625" />

<glyph glyph-name="sort" unicode="&#xe811;" d="M54 413h517c48 0 72 58 38 92l-258 267c-11 10-25 16-38 16-14 0-28-6-38-16l-259-267c-34-34-10-92 38-92z m517-125h-517c-48 0-72-59-38-92l259-268c10-10 22-16 38-16 13 0 27 6 38 16l258 268c34 33 10 92-38 92z" horiz-adv-x="625" />

<glyph glyph-name="sort-up" unicode="&#xe812;" d="M54 413h517c48 0 72 58 38 92l-258 267c-11 10-25 16-38 16-14 0-28-6-38-16l-259-267c-34-34-10-92 38-92z" horiz-adv-x="625" />

<glyph glyph-name="star" unicode="&#xe813;" d="M745 556l280-41c23-3 43-20 50-42 8-23 2-47-15-64l-204-200 49-286c3-24-6-47-26-61-19-14-45-16-65-5l-251 134-251-134c-21-11-47-9-66 5-19 14-29 37-25 61l48 286-203 200c-17 17-23 41-16 64 8 22 27 39 50 42l281 41 126 259c10 21 32 35 56 35 24 0 46-14 56-35l126-259z" horiz-adv-x="1125" />

<glyph glyph-name="trash" unicode="&#xe814;" d="M264 815c11 22 32 35 56 35h235c24 0 45-13 56-35l14-27h188c34 0 62-28 62-63 0-34-28-62-62-62h-750c-35 0-63 28-63 62 0 35 28 63 63 63h187l14 27z m507-875c-3-52-44-90-93-90h-480c-50 0-91 38-94 90l-43 660h752l-42-660z" horiz-adv-x="875" />

<glyph glyph-name="user-plus" unicode="&#xe815;" d="M438 350c138 0 250 112 250 250s-112 250-250 250c-139 0-250-112-250-250s111-250 250-250z m99-94h-198c-187 0-339-151-339-338 0-38 30-68 68-68h739c38 0 68 30 68 68 0 187-152 338-338 338z m666 203h-94v94c0 26-20 47-46 47s-47-21-47-47v-94h-94c-26 0-47-21-47-46s21-47 47-47h94v-94c0-26 21-47 47-47s46 21 46 47v94h94c26 0 47 21 47 47s-21 46-47 46z" horiz-adv-x="1250" />

<glyph glyph-name="cross" unicode="&#xe816;" d="M736 15c22-27 18-66-8-88-12-10-26-15-40-15-18 0-36 8-48 23l-265 319-264-317c-13-15-31-23-48-23-15 0-29 5-40 15-27 22-31 61-8 88l279 335-279 333c-23 27-19 66 8 88 26 22 65 19 88-8l264-317 265 317c22 27 61 30 88 8 26-22 30-61 8-88l-280-335 280-335z" horiz-adv-x="750" />

<glyph glyph-name="arrow-right-from-bracket" unicode="&#xe817;" d="M313 38h-125c-35 0-63 28-63 62v500c0 35 28 63 63 63h125c34 0 62 28 62 62s-28 63-62 63h-125c-104 0-188-84-188-188v-500c0-104 84-188 188-188h125c34 0 62 28 62 63s-28 63-62 63z m669 356l-250 250c-25 25-64 25-89 0-24-24-24-64 0-88l144-143h-412c-35 0-62-28-62-63s27-62 62-62h412l-144-144c-24-24-24-64 0-88s64-25 89 0l250 250c24 24 24 64 0 88z" horiz-adv-x="1000" />

<glyph glyph-name="arrow-right-to-bracket" unicode="&#xe818;" d="M813 788h-125c-35 0-63-28-63-63s28-62 63-62h125c34 0 62-28 62-63v-500c0-34-28-62-62-62h-125c-35 0-63-28-63-63s28-63 63-63h125c103 0 187 84 187 188v500c0 104-84 188-187 188z m-144-394l-250 250c-24 25-64 25-88 0-25-24-25-64 0-88l143-143h-411c-35 0-63-28-63-63s28-62 63-62h411l-143-144c-24-24-24-64 0-88s64-25 88 0l250 250c25 24 25 64 0 88z" horiz-adv-x="1000" />

<glyph glyph-name="bug" unicode="&#xe819;" d="M688 663v-7c0-31-25-56-56-56h-264c-31 0-57 25-57 56v7c0 103 84 187 187 187 106 0 190-84 190-187z m-607-19c24 25 64 25 88 0l125-125c2-1 3-2 4-4 28 15 59 23 91 23h220c34 0 65-8 93-23 1 2 3 3 4 4l125 125c24 25 64 25 88 0 25-24 25-64 0-88l-125-125c-3-1-2-3-4-4 12-23 20-49 22-77h126c34 0 62-28 62-62 0-35-28-63-62-63h-125c0-48-11-93-31-134 5-2 9-6 12-9l125-125c25-25 25-64 0-89-24-24-64-24-88 0l-123 123c-48-42-109-70-177-77v467c0 17-14 32-33 32-15 0-31-15-31-32v-467c-66 7-127 35-175 77l-123-123c-24-24-64-24-88 0-25 25-25 64 0 89l125 125c3 3 8 7 12 9-20 41-30 86-30 134h-125c-35 0-63 28-63 63 0 34 28 62 63 62h125c2 28 10 54 22 77-2 1-3 3-4 4l-125 125c-25 24-25 64 0 88h0z" horiz-adv-x="1000" />

<glyph glyph-name="chart-simple" unicode="&#xe81a;" d="M313 694c0 52 42 94 93 94h63c52 0 94-42 94-94v-688c0-52-42-94-94-94h-63c-51 0-93 42-93 94v688z m-313-375c0 52 42 94 94 94h62c52 0 94-42 94-94v-313c0-52-42-94-94-94h-62c-52 0-94 42-94 94v313z m781 344c52 0 94-42 94-94v-563c0-52-42-94-94-94h-62c-52 0-94 42-94 94v563c0 52 42 94 94 94h62z" horiz-adv-x="875" />

<glyph glyph-name="check" unicode="&#xe81b;" d="M857 644c24-24 24-64 0-88l-500-500c-25-25-64-25-89 0l-250 250c-24 24-24 64 0 88 25 25 64 25 89 0l204-205 457 455c25 25 64 25 89 0h0z" horiz-adv-x="875" />

<glyph glyph-name="chevron-down" unicode="&#xe81c;" d="M438 38c-16 0-32 6-45 18l-375 375c-24 24-24 64 0 88s64 25 89 0l331-331 330 331c25 25 64 25 89 0s24-64 0-88l-375-375c-12-12-28-18-44-18z" horiz-adv-x="875" />

<glyph glyph-name="chevron-left" unicode="&#xe81d;" d="M438-88c-16 0-32 7-45 19l-375 375c-24 24-24 64 0 88l375 375c25 25 64 25 89 0s24-64 0-88l-331-331 331-331c24-24 24-64 0-88-12-12-28-19-44-19z" horiz-adv-x="625" />

<glyph glyph-name="chevron-right" unicode="&#xe81e;" d="M188-88c-16 0-32 7-45 19-24 24-24 64 0 88l331 331-331 331c-24 24-24 64 0 88s64 25 89 0l375-375c24-24 24-64 0-88l-375-375c-12-12-28-19-44-19z" horiz-adv-x="625" />

<glyph glyph-name="circle-plus" unicode="&#xe81f;" d="M0 350c0 276 224 500 500 500 276 0 500-224 500-500 0-276-224-500-500-500-276 0-500 224-500 500z m500-219c26 0 47 21 47 47v125h125c26 0 47 21 47 47 0 26-21 47-47 47h-125v125c0 26-21 47-47 47-26 0-47-21-47-47v-125h-125c-26 0-47-21-47-47 0-26 21-47 47-47h125v-125c0-26 21-47 47-47z" horiz-adv-x="1000" />

<glyph glyph-name="chevron-up" unicode="&#xe820;" d="M813 163c-16 0-32 6-45 18l-330 331-331-331c-25-25-64-25-89 0s-24 64 0 88l375 375c25 25 64 25 89 0l375-375c24-24 24-64 0-88-12-12-28-18-44-18z" horiz-adv-x="875" />

<glyph glyph-name="user-group" unicode="&#xe821;" d="M438 350c138 0 250 112 250 250s-112 250-250 250c-139 0-250-112-250-250s111-250 250-250z m99-94h-198c-187 0-339-151-339-338 0-38 30-68 68-68h739c38 0 68 30 68 68 0 187-152 338-338 338z m399-31h-144c89-74 146-184 146-307 0-25-8-48-20-68h270c34 0 62 28 62 64 0 171-140 311-314 311z m-92 125c121 0 219 98 219 219s-98 219-219 219c-49 0-94-17-131-44 23-44 37-92 37-144 0-69-23-133-62-185 40-40 95-65 156-65z" horiz-adv-x="1250" />

<glyph glyph-name="user" unicode="&#xe822;" d="M438 350c138 0 250 112 250 250s-112 250-250 250c-139 0-250-112-250-250s111-250 250-250z m99-94h-198c-187 0-339-151-339-338 0-38 30-68 68-68h739c38 0 68 30 68 68 0 187-152 338-338 338z" horiz-adv-x="875" />

<glyph glyph-name="house" unicode="&#xe825;" d="M1125 351c0-35-30-63-63-63h-62l1-313c0-5 0-10-1-15v-32c0-43-35-78-78-78h-31c-2 0-5 0-7 0-3 0-5 0-8 0h-63-47c-43 0-78 35-78 78v47 125c0 35-28 63-63 63h-125c-35 0-62-28-62-63v-125-47c0-43-35-78-79-78h-46-63c-3 0-6 0-9 0-2 0-4 0-7 0h-31c-43 0-78 35-78 78v219c0 2 0 4 0 5v136h-62c-36 0-63 28-63 63 0 18 6 33 20 47l500 436c14 14 30 16 43 16s30-4 41-14l499-438c16-14 24-29 22-47z" horiz-adv-x="1125" />

<glyph glyph-name="pencil" unicode="&#xe826;" d="M801 399l22 22-66 66-121 121-66 67-22-22-44-45-389-389c-21-20-36-45-44-73l-69-235c-5-16 0-34 12-46s30-17 46-12l235 69c28 8 53 23 73 43l389 390 44 44z m-488-329l-18-44c-8-6-17-11-26-14l-153-45 45 153c3 9 7 18 13 26l45 18v-63c0-17 14-31 31-31h63z m395 744l-28-29-44-44-22-22 66-66 121-122 67-66 22 22 44 44 28 29c49 49 49 128 0 177l-77 77c-48 48-128 48-176 0z m-92-329l-281-281c-12-12-32-12-45 0s-12 32 0 44l282 282c12 12 32 12 44 0s12-32 0-45z" horiz-adv-x="1000" />

<glyph glyph-name="code-commit" unicode="&#xe828;" d="M625 194a156 156 0 1 1 0 312 156 156 0 1 1 0-312z m306 94c-29-143-155-250-306-250s-277 107-306 250h-256c-35 0-63 27-63 62s28 63 63 63h256c29 142 155 250 306 250s277-108 306-250h257c34 0 62-28 62-63s-28-62-62-62h-257z" horiz-adv-x="1250" />

<glyph glyph-name="git-alt" unicode="&#xe829;" d="M859 389l-382 382a56 56 0 0 1-80 0l-80-79 101-101c53 18 103-33 85-85l97-97c67 23 119-61 69-111-52-52-137 6-109 73l-91 90v-238c50-24 44-81 18-107a67 67 0 0 0-95 0c-34 34-21 92 22 109v241c-41 16-48 60-36 87l-99 100-262-262a56 56 0 0 1 0-80l382-382a56 56 0 0 1 79 0l381 380a56 56 0 0 1 0 80z" horiz-adv-x="875" />

<glyph glyph-name="image" unicode="&#xe82a;" d="M0 663c0 68 56 125 125 125h750c69 0 125-57 125-125v-625c0-69-56-126-125-126h-750c-69 0-125 57-125 126v625z m632-208c-8 12-23 20-38 20s-30-8-39-20l-170-250-52 65c-9 11-22 18-36 18s-28-7-37-18l-125-156c-11-14-13-34-5-50s24-26 42-26h187 63 406c18 0 34 9 42 25s7 34-3 48l-235 344z m-413 20a94 94 0 1 1 0 188 94 94 0 1 1 0-188z" horiz-adv-x="1000" />

<glyph glyph-name="align-left" unicode="&#xe82b;" d="M563 725c0-35-28-62-63-62h-437c-35 0-63 27-63 62s28 63 63 63h437c35 0 63-28 63-63z m0-500c0-35-28-62-63-62h-437c-35 0-63 27-63 62s28 63 63 63h437c35 0 63-28 63-63z m-563 250c0 35 28 63 63 63h750c34 0 62-28 62-63s-28-62-62-62h-750c-35 0-63 27-63 62z m875-500c0-35-28-63-62-63h-750c-35 0-63 28-63 63s28 63 63 63h750c34 0 62-28 62-63z" horiz-adv-x="875" />

<glyph glyph-name="circle-info" unicode="&#xe82c;" d="M500-150a500 500 0 1 1 0 1000 500 500 0 1 1 0-1000z m-78 344h47v125h-47c-26 0-47 21-47 47s21 47 47 47h94c26 0 47-21 47-47v-172h15c26 0 47-21 47-47s-21-47-47-47h-156c-26 0-47 21-47 47s21 47 47 47z m78 406a63 63 0 1 0 0-125 63 63 0 1 0 0 125z" horiz-adv-x="1000" />

<glyph glyph-name="grip-vertical" unicode="&#xe82d;" d="M78 163l94 0c43 0 78-35 78-79l0-93c0-44-35-79-78-79l-94 0c-43 0-78 35-78 79l0 93c0 44 35 79 78 79z m375 0l94 0c43 0 78-35 78-79l0-93c0-44-35-79-78-79l-94 0c-43 0-78 35-78 79l0 93c0 44 35 79 78 79z m-375 62c-43 0-78 35-78 78l0 94c0 43 35 78 78 78l94 0c43 0 78-35 78-78l0-94c0-43-35-78-78-78l-94 0z m375 250l94 0c43 0 78-35 78-78l0-94c0-43-35-78-78-78l-94 0c-43 0-78 35-78 78l0 94c0 43 35 78 78 78z m-375 63c-43 0-78 35-78 78l0 93c0 44 35 79 78 79l94 0c43 0 78-35 78-79l0-93c0-43-35-78-78-78l-94 0z m375 250l94 0c43 0 78-35 78-79l0-93c0-43-35-78-78-78l-94 0c-43 0-78 35-78 78l0 93c0 44 35 79 78 79z" horiz-adv-x="625" />

<glyph glyph-name="lock" unicode="&#xe82e;" d="M281 569v-94h313v94c0 86-70 156-156 156s-157-70-157-156z m-125-94v94c0 155 126 281 282 281s281-126 281-281v-94h31c69 0 125-56 125-125v-375c0-69-56-125-125-125h-625c-69 0-125 56-125 125v375c0 69 56 125 125 125h31z" horiz-adv-x="875" />

<glyph glyph-name="tag" unicode="&#xe82f;" d="M0 694v-292c0-33 13-65 37-89l343-344c49-48 128-48 177 0l261 261c49 49 49 128 0 177l-344 344c-23 23-55 36-88 36h-292c-52 1-94-41-94-93z m219-63a63 63 0 1 0 0-125 63 63 0 1 0 0 125z" horiz-adv-x="875" />

<glyph glyph-name="link" unicode="&#xe830;" d="M1132 327c111 111 111 289 0 400-97 97-251 110-363 30l-4-2c-28-21-34-60-14-88s59-34 87-14l3 2c63 45 149 38 203-17 62-61 62-161 0-222l-219-220c-62-61-161-61-223 0-54 55-61 140-17 203l3 3c20 28 13 67-15 87s-67 14-87-14l-2-3c-81-113-68-266 30-364 110-111 289-111 399 0l219 219z m-1014 46c-111-110-111-289 0-400 97-97 251-110 363-30l4 2c28 21 34 60 14 88s-59 34-87 14l-3-2c-63-45-149-38-203 17-61 61-61 161 0 223l219 219c62 61 161 61 223 0 54-55 61-140 17-203l-2-3c-21-28-14-67 14-87s67-14 87 14l2 3c81 113 68 267-30 364-110 111-289 111-399 0l-219-219z" horiz-adv-x="1250" />

<glyph glyph-name="star-half" unicode="&#xe831;" d="M625 115l0 0 52-27 166-89-32 190-9 56 40 40 137 136-188 27-57 9-25 52-84 171 0 0v-565z m342-192c4-24-6-47-25-61s-45-16-66-5l-251 134-250-134c-21-11-47-9-66 5s-29 37-26 61l49 284-204 202c-17 16-23 41-15 64s27 39 50 42l280 41 126 259c11 21 32 35 56 35s46-14 57-35l125-259 281-41c23-3 43-20 50-42s1-48-15-64l-204-202 48-284z" horiz-adv-x="1250" />

<glyph glyph-name="star-empty" unicode="&#xe832;" d="M562 850c18 0 35-10 43-26l134-276 299-44c17-3 32-15 37-32s1-36-11-48l-217-215 51-304c3-18-4-36-19-46s-33-12-49-4l-268 143-267-142c-16-9-35-8-49 3s-22 28-19 46l51 304-217 215c-13 12-17 31-12 48s20 29 38 32l299 44 134 276c8 16 24 26 42 26z m0-154l-102-212c-7-13-20-23-36-26l-231-34 168-166c11-10 16-26 13-41l-39-234 205 110c14 8 31 8 44 0l206-110-40 234c-2 15 3 30 14 41l167 166-231 34c-15 3-28 12-35 26l-103 212z" horiz-adv-x="1125" />

<glyph glyph-name="piwigo" unicode="&#xe843;" d="M664 822l-82-29-191-5c-152-5-200-9-229-20-51-18-117-80-139-130-19-41-19-47-21-307-3-298 0-315 52-384 20-28 44-46 82-66l54-27 286 0 286 0 44 20c55 26 97 68 123 124l20 43 3 332c2 368 2 372-47 422-60 61-122 68-241 27z m163-102c21-26 21-44-1-70-36-41-102-18-102 35 0 54 70 78 103 35z m-224-157c60-30 102-72 131-134 17-38 20-55 20-114 0-61-3-77-22-115-47-96-146-157-255-157-110 0-209 61-256 157-19 38-22 54-22 115 0 59 3 77 21 113 51 110 143 166 268 162 53-2 71-6 115-27z m-171-48c-119-31-185-160-139-273 16-40 78-97 120-109 72-22 141-7 196 43 79 71 87 184 19 273-37 49-133 82-196 66z" horiz-adv-x="953" />

<glyph glyph-name="circle-notch-solid" unicode="&#xe85e;" d="M435 787c10-33-9-68-42-77-155-47-268-190-268-360 0-207 168-375 375-375s375 168 375 375c0 170-113 313-268 360-33 9-52 44-42 77s45 52 78 42c206-61 357-252 357-479 0-276-224-500-500-500s-500 224-500 500c0 227 151 418 357 479 33 10 68-9 78-42z" horiz-adv-x="1000" />

<glyph glyph-name="code-branch" unicode="&#xe864;" d="M156 647a47 47 0 1 1 0 94 47 47 0 1 1 0-94z m157 47c0-64-39-119-94-143v-172c37 21 79 34 125 34h187c69 0 125 56 125 125v13c-55 24-93 79-93 143 0 86 69 156 156 156s156-70 156-156c0-64-38-119-94-143v-13c0-139-112-250-250-250h-187c-69 0-125-57-125-125v-14c55-24 94-79 94-143 0-86-70-156-157-156s-156 70-156 156c0 64 39 119 94 143v14 388c-55 24-94 79-94 143 0 86 70 156 156 156s157-70 157-156z m453 0a47 47 0 1 1-94 0 47 47 0 1 1 94 0z m-610-735a47 47 0 1 1 0 94 47 47 0 1 1 0-94z" horiz-adv-x="875" />

<glyph glyph-name="arrow-right" unicode="&#xe865;" d="M653 41c18-7 37-3 51 9l281 266c10 9 15 21 15 34s-5 25-15 34l-281 266c-14 13-33 16-51 9s-28-25-28-43l0-141-562 0c-35 0-63-28-63-62l0-125c0-35 28-63 63-63l562 0 0-141c0-18 11-35 28-43z" horiz-adv-x="1000" />

<glyph glyph-name="clock" unicode="&#xe868;" d="M906 350a406 406 0 1 0-812 0 406 406 0 1 0 812 0z m-906 0a500 500 0 1 1 1000 0 500 500 0 1 1-1000 0z m453 266v-266c0-16 8-30 21-39l188-125c21-14 50-9 65 13s8 51-13 65l-167 111v241c0 26-21 47-47 47s-47-21-47-47z" horiz-adv-x="1000" />

<glyph glyph-name="gears" unicode="&#xe86a;" d="M603 586c13 12 19 31 12 49-5 10-10 20-15 30l-6 10c-6 10-13 20-19 29-11 15-31 20-49 14l-55-18c-21 17-45 31-70 40l-12 57c-4 18-18 33-36 35-13 2-26 2-40 2h-1c-13 0-26 0-39-2-19-2-33-17-36-35l-12-57c-26-9-50-23-71-40l-55 18c-18 5-37 1-49-14-6-9-13-19-19-29l-6-10c-5-10-10-20-15-31-7-17-1-36 13-48l43-39c-2-13-3-27-3-41s1-27 3-41l-43-38c-14-12-20-32-13-49 5-10 10-21 15-30l6-11c6-10 12-19 19-28 12-15 31-20 49-14l55 18c21-17 45-31 70-41l12-57c4-18 18-32 37-34 13-2 26-3 39-3s27 1 40 3c19 2 33 17 36 34l12 57c26 10 50 24 71 41l55-18c18-6 37-1 48 14 7 9 14 18 19 28l6 11c6 10 11 20 15 30 8 17 2 37-12 49l-43 39c2 13 3 27 3 40s-1 28-3 41l43 39z m-384-80a94 94 0 1 0 187 0 94 94 0 1 0-187 0z m767-634c12-13 31-19 49-12 10 5 20 10 30 15l10 6c10 6 20 13 29 19 15 11 20 31 14 49l-18 55c17 21 31 45 40 70l57 12c18 4 33 18 35 37 2 13 2 26 2 39s0 27-2 40c-2 19-17 33-35 36l-57 12c-9 26-23 50-40 71l18 55c6 18 1 37-14 48-9 7-19 14-29 20l-10 6c-10 5-20 10-30 15-17 7-37 1-49-13l-39-43c-13 2-27 3-41 3s-27-1-41-3l-38 43c-12 14-32 20-49 13-10-5-21-10-30-15l-11-6c-10-6-19-13-28-20-15-11-20-30-14-48l18-55c-17-21-31-45-41-71l-57-11c-18-4-32-18-34-36-2-13-3-27-3-40s1-27 3-40c2-18 17-33 34-36l57-12c10-26 24-50 41-71l-18-55c-6-18-1-37 14-48 9-7 18-14 28-19l11-6c10-6 20-11 30-15 17-8 37-2 49 12l39 43c13-2 27-3 40-3s28 1 41 3l39-43z m-80 384a94 94 0 1 0 0-187 94 94 0 1 0 0 187z" horiz-adv-x="1250" />
</font>
</defs>
</svg>
