<?xml version="1.0" encoding="UTF-8" standalone="no"?>
<!DOCTYPE svg PUBLIC "-//W3C//DTD SVG 1.1//EN" "http://www.w3.org/Graphics/SVG/1.1/DTD/svg11.dtd">
<svg width="100%" height="100%" viewBox="0 0 46 73" version="1.1" xmlns="http://www.w3.org/2000/svg" xmlns:xlink="http://www.w3.org/1999/xlink" xml:space="preserve" xmlns:serif="http://www.serif.com/" style="fill-rule:evenodd;clip-rule:evenodd;stroke-linejoin:round;stroke-miterlimit:2;">
    <g id="layer1" transform="matrix(1,0,0,1,-168.457,-453.179)">
        <path id="path11018" d="M205.825,453.179C200.63,453.296 201.016,456.274 189.348,456.347L184.281,456.347C184.19,456.347 182.858,456.345 183.511,456.347C183.511,456.347 180.578,456.347 180.578,456.347C173.929,456.347 168.457,461.818 168.457,468.467C168.457,468.467 168.457,489.973 168.457,489.973C168.475,495.89 172.825,500.972 178.668,501.905L178.668,523.204C178.668,524.322 179.588,525.241 180.705,525.241C181.063,525.241 181.414,525.147 181.724,524.968L188.275,521.185C190.163,520.095 192.498,520.095 194.386,521.185L200.938,524.968C201.247,525.147 201.599,525.241 201.956,525.241C203.074,525.241 203.993,524.322 203.993,523.204L203.993,501.905C209.837,500.972 214.186,495.89 214.204,489.973L214.204,461.495L214.195,461.476C214.195,461.442 214.198,461.408 214.198,461.374C214.198,456.835 210.364,453.18 205.826,453.18L205.825,453.179ZM206.007,458.367C207.582,458.368 208.878,459.664 208.878,461.239C208.878,462.814 207.582,464.109 206.007,464.11C204.432,464.109 203.136,462.814 203.136,461.239C203.136,459.664 204.432,458.368 206.007,458.367ZM191.33,465.655C191.331,465.655 191.331,465.655 191.331,465.655C198.773,465.655 204.896,471.778 204.896,479.22C204.896,486.661 198.773,492.785 191.331,492.785C191.331,492.785 191.331,492.785 191.33,492.785C183.889,492.785 177.765,486.661 177.765,479.22C177.765,471.778 183.889,465.655 191.33,465.655ZM191.33,469.616C191.33,469.616 191.33,469.616 191.33,469.616C186.061,469.616 181.725,473.951 181.725,479.22C181.725,484.489 186.061,488.825 191.33,488.825C191.33,488.825 191.33,488.825 191.33,488.825C196.599,488.825 200.935,484.489 200.935,479.22C200.935,473.951 196.599,469.616 191.33,469.616Z" style="fill:rgb(255,51,99);fill-rule:nonzero;"/>
    </g>
</svg>
